# xmcd
#
# Track frame offsets:
#	150
#	19948
#	40578
#	61753
#
# Disc length: 1212 seconds
#
# Revision: 1
# Processed by: cddbd v1.5PL3 Copyright (c) Steve Scherf et al.
# Submitted via: CDex 1.50Beta5
#
DISCID=2604ba04
DTITLE=F.O.H - JUICY
DYEAR=2001
DGENRE=Rock
TTITLE0=JUICY
TTITLE1=my シンデレラ
TTITLE2=JUICY - Mr.Drunk男汁 Remix -
TTITLE3=JUICY -Freshly Squeezed Mix -
EXTD=
EXTT0=
EXTT1=
EXTT2=
EXTT3=
PLAYORDER=
